<svg width="17" height="17" viewBox="0 0 17 17" fill="none" xmlns="http://www.w3.org/2000/svg">
<g clip-path="url(#clip0_147_381)">
<path d="M8.5 17C13.1955 17 17 13.1955 17 8.5C17 3.80446 13.1955 0 8.5 0C3.80446 0 0 3.80446 0 8.5C0 13.1955 3.80446 17 8.5 17ZM3.88946 8.31583L12.0849 5.15596C12.4653 5.01854 12.7975 5.24875 12.6742 5.82392L12.6749 5.82321L11.2795 12.3973C11.1761 12.8633 10.8991 12.9767 10.5117 12.7571L8.38667 11.191L7.36171 12.1784C7.24837 12.2917 7.15275 12.3873 6.93317 12.3873L7.08404 10.2248L11.0224 6.66683C11.1938 6.51596 10.9841 6.43096 10.7582 6.58113L5.89121 9.64537L3.79312 8.99087C3.33767 8.84637 3.32775 8.53542 3.88946 8.31583Z" fill="white"/>
</g>
<defs>
<clipPath id="clip0_147_381">
<rect width="17" height="17" fill="white"/>
</clipPath>
</defs>
</svg>
