<svg width="17" height="17" viewBox="0 0 17 17" fill="none" xmlns="http://www.w3.org/2000/svg">
<g clip-path="url(#clip0_147_383)">
<path d="M8.50214 0H8.49789C3.8112 0 1.1153e-05 3.81225 1.1153e-05 8.5C-0.00289914 10.2903 0.563826 12.0351 1.6182 13.4821L0.558886 16.6398L3.82607 15.5954C5.21197 16.5148 6.83898 17.0036 8.50214 17C13.1888 17 17 13.1867 17 8.5C17 3.81331 13.1888 0 8.50214 0ZM13.4481 12.0031C13.243 12.5821 12.4291 13.0624 11.78 13.2026C11.3358 13.2972 10.7557 13.3726 8.80282 12.563C6.30489 11.5281 4.69626 8.98981 4.57089 8.82512C4.45082 8.66044 3.56151 7.48106 3.56151 6.26131C3.56151 5.04156 4.18095 4.44762 4.43064 4.19262C4.6357 3.98331 4.97464 3.88769 5.29976 3.88769C5.40495 3.88769 5.49951 3.893 5.58451 3.89725C5.8342 3.90787 5.95957 3.92275 6.12426 4.31694C6.32932 4.811 6.8287 6.03075 6.8882 6.15612C6.94876 6.2815 7.00932 6.4515 6.92432 6.61619C6.84464 6.78619 6.77451 6.86162 6.64914 7.00612C6.52376 7.15062 6.40476 7.26112 6.27939 7.41625C6.16464 7.55119 6.03501 7.69569 6.17951 7.94537C6.32401 8.18975 6.82339 9.00469 7.55864 9.65919C8.50745 10.5039 9.2767 10.7737 9.55189 10.8885C9.75695 10.9735 10.0013 10.9533 10.1511 10.7939C10.3413 10.5889 10.5761 10.2489 10.8152 9.91419C10.9852 9.67406 11.1998 9.64431 11.4251 9.72931C11.6546 9.809 12.869 10.4093 13.1187 10.5336C13.3684 10.659 13.5331 10.7185 13.5936 10.8237C13.6531 10.9289 13.6531 11.4229 13.4481 12.0031Z" fill="white"/>
</g>
<defs>
<clipPath id="clip0_147_383">
<rect width="17" height="17" fill="white"/>
</clipPath>
</defs>
</svg>
