<svg xmlns="http://www.w3.org/2000/svg" viewBox="0 0 56 61">
  <path fill="none" d="M0 0h56v61H0z"/>
  <path fill="#0d0d0d" d="M39 19.3s4.1-1.3 7.4-4.5v2.7c-1.8 1.5-4.1 2.3-4.1 2.3l-3.3-.5zM54 1.8v1.7c.3 10.1.3 20.3-.1 30.4v-.2 4.8L56 37V3.9l-2-2.1z"/>
  <path fill="#414141" d="M54 3.5V1.9l-6.5.9c-.6 1.7-1.3 5.5-8.5 9.1v7.4s4.1-1.3 7.4-4.5V38l7.6.6v-4.8c-.4-10.2-.3-20.3 0-30.3z"/>
  <path fill="#acacac" d="M54 3.5c.3 10.1.3 20.3-.1 30.4-.3-10.1-.2-20.3.1-30.4z"/>
  <path fill="#820000" d="m35.6 55.8-2.6-9-3.4.1 2.2 7.5zm-8.1-17.3-3.2-11.6 1.9-6 5 17.6z"/>
  <path fill="#ff3f36" d="m31.2 10.2-10.5-2-3.1 8.8C14 28.1 10.2 39.3 6.2 50.3c7.3-2.2 12.1-6.7 15.8-11.8h-1.2L26.1 21l1.7 5.9c3.5-9.5 3.4-16.7 3.4-16.7z"/>
  <path fill="#eb140a" d="M3 59.2zm28.3-49h-.2s.1 7.2-3.3 16.7l3.3 11.6H22c-3.7 5.2-8.5 9.7-15.8 11.8-1.1 3-2.1 5.9-3.2 8.9l12.6-1.3 3-10.4 14.4-.7 2.6 9 9-1-13.3-44.6z"/>
  <path fill="#b80000" d="M17.9 16.1c-.1.2-.1.4-.2.6l2.9-8.5-4.5 2.3L0 56.7l3 2.5c4.6-14.5 9.7-28.9 14.9-43.1z"/>
  <path fill="#fdc9c4" d="M17.9 16.1C13.2 30.5 8.2 45 3 59.2c4.6-14.5 9.7-28.9 14.9-43.1z"/>
</svg>